<svg width="38" height="38" viewBox="0 0 38 38" fill="none" xmlns="http://www.w3.org/2000/svg">
<path d="M19 0.166016C29.401 0.166279 37.8338 8.59895 37.834 19C37.8337 29.401 29.401 37.8337 19 37.834C8.59895 37.8338 0.16628 29.401 0.166016 19C0.166192 8.5989 8.5989 0.166192 19 0.166016ZM19 1.16699C9.15118 1.16717 1.16717 9.15118 1.16699 19C1.16726 28.8487 9.15123 36.8338 19 36.834C28.8487 36.8337 36.8337 28.8487 36.834 19C36.8338 9.15123 28.8487 1.16726 19 1.16699ZM19 10.5C19.2761 10.5 19.5 10.7239 19.5 11V18.5H27C27.2761 18.5 27.5 18.7239 27.5 19C27.5 19.2761 27.2761 19.5 27 19.5H19.5V27C19.5 27.2761 19.2761 27.5 19 27.5C18.7239 27.5 18.5 27.2761 18.5 27V19.5H11C10.7239 19.5 10.5 19.2761 10.5 19C10.5 18.7239 10.7239 18.5 11 18.5H18.5V11C18.5 10.7239 18.7239 10.5 19 10.5Z" fill="white"/>
</svg>
