<svg width="32" height="33" viewBox="0 0 32 33" fill="none" xmlns="http://www.w3.org/2000/svg">
<g clip-path="url(#clip0_190_1908)">
<path d="M30.6667 25.5355C30.6667 26.2427 30.3858 26.921 29.8857 27.4211C29.3856 27.9212 28.7073 28.2021 28 28.2021H4.00004C3.2928 28.2021 2.61452 27.9212 2.11442 27.4211C1.61433 26.921 1.33337 26.2427 1.33337 25.5355V10.8688C1.33337 10.1616 1.61433 9.48329 2.11442 8.9832C2.61452 8.4831 3.2928 8.20215 4.00004 8.20215H9.33337L12 4.20215H20L22.6667 8.20215H28C28.7073 8.20215 29.3856 8.4831 29.8857 8.9832C30.3858 9.48329 30.6667 10.1616 30.6667 10.8688V25.5355Z" stroke="#9B6BFF" stroke-width="3" stroke-linecap="round" stroke-linejoin="round"/>
<path d="M16 22.8688C18.9456 22.8688 21.3334 20.481 21.3334 17.5355C21.3334 14.59 18.9456 12.2021 16 12.2021C13.0545 12.2021 10.6667 14.59 10.6667 17.5355C10.6667 20.481 13.0545 22.8688 16 22.8688Z" stroke="#9B6BFF" stroke-width="3" stroke-linecap="round" stroke-linejoin="round"/>
</g>
<defs>
<clipPath id="clip0_190_1908">
<rect width="32" height="32" fill="white" transform="translate(0 0.202148)"/>
</clipPath>
</defs>
</svg>
