<svg width="218" height="218" viewBox="0 0 218 218" fill="none" xmlns="http://www.w3.org/2000/svg">
<path d="M18.167 109C18.167 66.1808 18.167 44.7712 31.4693 31.469C44.7714 18.1667 66.181 18.1667 109 18.1667C151.819 18.1667 173.229 18.1667 186.531 31.469C199.834 44.7712 199.834 66.1808 199.834 109" stroke="white" stroke-width="9"/>
<path d="M18.167 127.167C18.167 101.731 18.167 89.0131 23.1171 79.298C27.4713 70.7523 34.4193 63.8043 42.9649 59.4501C52.6801 54.5 65.398 54.5 90.8336 54.5H127.167C152.603 54.5 165.321 54.5 175.036 59.4501C183.582 63.8043 190.53 70.7523 194.883 79.298C199.834 89.0131 199.834 101.731 199.834 127.167C199.834 152.603 199.834 165.32 194.883 175.036C190.53 183.581 183.582 190.529 175.036 194.883C165.321 199.833 152.603 199.833 127.167 199.833H90.8336C65.398 199.833 52.6801 199.833 42.9649 194.883C34.4193 190.529 27.4713 183.581 23.1171 175.036C18.167 165.32 18.167 152.603 18.167 127.167Z" stroke="white" stroke-width="9"/>
<path d="M109 99.9167V154.417M109 154.417L131.709 131.708M109 154.417L86.292 131.708" stroke="white" stroke-width="9" stroke-linecap="round" stroke-linejoin="round"/>
</svg>
