<svg width="39" height="40" viewBox="0 0 39 40" fill="none" xmlns="http://www.w3.org/2000/svg">
<path fill-rule="evenodd" clip-rule="evenodd" d="M8.01136 19.5556C8.01136 18.2853 8.22233 17.0676 8.59886 15.9253L2.00818 10.8925C0.723693 13.5005 0 16.4391 0 19.5556C0 22.6693 0.722803 25.6062 2.00551 28.2125L8.59263 23.1698C8.21966 22.0329 8.01136 20.8196 8.01136 19.5556Z" fill="#FBBC05"/>
<path fill-rule="evenodd" clip-rule="evenodd" d="M19.5835 8C22.3429 8 24.8353 8.97778 26.7937 10.5778L32.4907 4.88889C29.0191 1.86667 24.5683 0 19.5835 0C11.8445 0 5.19326 4.42578 2.0083 10.8924L8.59898 15.9253C10.1176 11.3156 14.4464 8 19.5835 8Z" fill="#EB4335"/>
<path fill-rule="evenodd" clip-rule="evenodd" d="M19.5835 31.1111C14.4464 31.1111 10.1176 27.7956 8.59898 23.1858L2.0083 28.2178C5.19326 34.6853 11.8445 39.1111 19.5835 39.1111C24.36 39.1111 28.9203 37.4151 32.3429 34.2373L26.0869 29.4009C24.3217 30.5129 22.099 31.1111 19.5835 31.1111Z" fill="#34A853"/>
<path fill-rule="evenodd" clip-rule="evenodd" d="M38.2767 19.5556C38.2767 18.4 38.0986 17.1556 37.8316 16H19.5835V23.5556H30.0873C29.5621 26.1316 28.1325 28.112 26.0869 29.4009L32.3429 34.2373C35.9382 30.9004 38.2767 25.9298 38.2767 19.5556Z" fill="#4285F4"/>
</svg>
