<svg width="24" height="25" viewBox="0 0 24 25" fill="none" xmlns="http://www.w3.org/2000/svg">
<path d="M2 12.6082C2 10.3198 2 9.17558 2.5192 8.22704C3.0384 7.27851 3.98695 6.68981 5.88403 5.51243L7.88403 4.27117C9.88939 3.02659 10.8921 2.4043 12 2.4043C13.1079 2.4043 14.1106 3.02659 16.116 4.27117L18.116 5.51242C20.0131 6.68981 20.9616 7.27851 21.4808 8.22704C22 9.17558 22 10.3198 22 12.6082V14.1293C22 18.0301 22 19.9806 20.8284 21.1924C19.6569 22.4043 17.7712 22.4043 14 22.4043H10C6.22876 22.4043 4.34315 22.4043 3.17157 21.1924C2 19.9806 2 18.0301 2 14.1293V12.6082Z" stroke="black"/>
<path d="M12 15.4043V18.4043" stroke="black" stroke-linecap="round"/>
</svg>
