<svg width="40" height="40" viewBox="0 0 40 40" fill="none" xmlns="http://www.w3.org/2000/svg">
<path d="M20.0834 3.02244C2.44935 2.92964 -5.72705 21.5468 10.3098 29.8172C10.0278 30.7888 8.49895 36.0692 8.43775 36.484C8.39415 36.8084 8.64135 37.0804 9.04215 36.9412C9.62135 36.86 15.7542 32.552 16.8158 31.804C42.245 34.8476 47.2522 4.19044 20.0834 3.02244Z" fill="#3D1D1C"/>
<path d="M10.9736 21.5772C10.9392 22.9104 8.88719 22.9156 8.85079 21.5772V15.272H7.19479C5.82319 15.2372 5.82039 13.2292 7.19479 13.1936H12.6296C14.002 13.23 14.0036 15.2356 12.6296 15.272H10.9736V21.5772Z" fill="#FFE812"/>
<path d="M19.8935 22.4304C19.4171 22.6816 18.4955 22.6204 18.3355 22.108L17.8099 20.732H14.5735L14.0475 22.1088C13.8883 22.6204 12.9663 22.682 12.4903 22.4304C12.1975 22.2956 11.9163 21.9244 12.2387 20.9232L14.7775 14.2412C15.2971 12.8708 17.0839 12.8648 17.6067 14.2424L20.1443 20.9216C20.4671 21.9248 20.1859 22.296 19.8935 22.4304Z" fill="#FFE812"/>
<path d="M25.2574 22.436H21.8522C21.2914 22.436 20.835 21.9996 20.835 21.4632V14.2548C20.8714 12.858 22.9646 12.8536 23.0018 14.2548V20.49H25.2574C26.597 20.5232 26.5998 22.402 25.2574 22.436Z" fill="#FFE812"/>
<path d="M33.5659 21.6369C33.4715 22.5469 32.1927 22.8821 31.6679 22.1293L29.1791 18.8313L28.8107 19.1997V21.5153C28.7759 22.9121 26.7243 22.9173 26.6875 21.5157V14.2549C26.7243 12.8569 28.7727 12.8541 28.8103 14.2549V16.5361L31.7715 13.5749C32.1267 13.2145 32.7443 13.2921 33.0907 13.6521C33.4511 13.9945 33.5291 14.6193 33.1687 14.9713L30.7499 17.3897L33.3623 20.8509C33.5323 21.0749 33.6055 21.3581 33.5659 21.6369Z" fill="#FFE812"/>
<path d="M15.1318 18.8524H17.2518L16.1918 15.8408L15.1318 18.8524Z" fill="#3D1D1C"/>
</svg>
