<svg width="24" height="25" viewBox="0 0 24 25" fill="none" xmlns="http://www.w3.org/2000/svg">
<path d="M16 4.4043C18.175 4.41641 19.3529 4.51286 20.1213 5.28124C21 6.15992 21 7.57413 21 10.4026V16.4026C21 19.231 21 20.6452 20.1213 21.5239C19.2426 22.4026 17.8284 22.4026 15 22.4026H9C6.17157 22.4026 4.75736 22.4026 3.87868 21.5239C3 20.6452 3 19.231 3 16.4026V10.4026C3 7.57413 3 6.15992 3.87868 5.28124C4.64706 4.51286 5.82497 4.41641 8 4.4043" stroke="black"/>
<path d="M9 13.8043L10.7143 15.4043L15 11.4043" stroke="black" stroke-linecap="round" stroke-linejoin="round"/>
<path d="M8 3.9043C8 3.07587 8.67157 2.4043 9.5 2.4043H14.5C15.3284 2.4043 16 3.07587 16 3.9043V4.9043C16 5.73273 15.3284 6.4043 14.5 6.4043H9.5C8.67157 6.4043 8 5.73273 8 4.9043V3.9043Z" stroke="black"/>
</svg>
