<svg width="24" height="25" viewBox="0 0 24 25" fill="none" xmlns="http://www.w3.org/2000/svg">
<path d="M18.7491 10.1139V9.40927C18.7491 5.54053 15.7274 2.4043 12 2.4043C8.27256 2.4043 5.25087 5.54053 5.25087 9.40927V10.1139C5.25087 10.9595 5.00972 11.7861 4.5578 12.4897L3.45036 14.2138C2.43882 15.7886 3.21105 17.9292 4.97036 18.4272C9.57274 19.73 14.4273 19.73 19.0296 18.4272C20.789 17.9292 21.5612 15.7886 20.5496 14.2138L19.4422 12.4897C18.9903 11.7861 18.7491 10.9595 18.7491 10.1139Z" stroke="black"/>
<path d="M7.5 19.4043C8.15503 21.1521 9.92246 22.4043 12 22.4043C14.0775 22.4043 15.845 21.1521 16.5 19.4043" stroke="black" stroke-linecap="round"/>
</svg>
