<svg width="24" height="25" viewBox="0 0 24 25" fill="none" xmlns="http://www.w3.org/2000/svg">
<path d="M12 15.4043C13.6569 15.4043 15 14.0612 15 12.4043C15 10.7474 13.6569 9.4043 12 9.4043C10.3431 9.4043 9 10.7474 9 12.4043C9 14.0612 10.3431 15.4043 12 15.4043Z" stroke="black"/>
<path d="M13.7654 2.55654C13.3978 2.4043 12.9319 2.4043 12 2.4043C11.0681 2.4043 10.6022 2.4043 10.2346 2.55654C9.74457 2.75953 9.35522 3.14888 9.15223 3.63893C9.05957 3.86264 9.0233 4.1228 9.00911 4.50229C8.98826 5.05998 8.70226 5.57619 8.21894 5.85523C7.73564 6.13426 7.14559 6.12384 6.65219 5.86306C6.31645 5.6856 6.07301 5.58692 5.83294 5.55532C5.30704 5.48608 4.77518 5.62859 4.35436 5.9515C4.03874 6.19368 3.80577 6.5972 3.33983 7.40423C2.87389 8.21127 2.64092 8.61478 2.58899 9.00921C2.51976 9.5351 2.66227 10.067 2.98518 10.4878C3.13256 10.6799 3.3397 10.8413 3.66119 11.0433C4.1338 11.3403 4.43789 11.8462 4.43786 12.4043C4.43783 12.9624 4.13375 13.4682 3.66118 13.7651C3.33965 13.9672 3.13248 14.1287 2.98508 14.3208C2.66217 14.7416 2.51966 15.2734 2.5889 15.7993C2.64082 16.1937 2.87379 16.5973 3.33973 17.4043C3.80568 18.2113 4.03865 18.6149 4.35426 18.857C4.77508 19.1799 5.30694 19.3224 5.83284 19.2532C6.07289 19.2216 6.31632 19.1229 6.65204 18.9455C7.14547 18.6847 7.73556 18.6743 8.2189 18.9533C8.70224 19.2324 8.98826 19.7486 9.00911 20.3064C9.02331 20.6858 9.05957 20.946 9.15223 21.1697C9.35522 21.6597 9.74457 22.0491 10.2346 22.2521C10.6022 22.4043 11.0681 22.4043 12 22.4043C12.9319 22.4043 13.3978 22.4043 13.7654 22.2521C14.2554 22.0491 14.6448 21.6597 14.8477 21.1697C14.9404 20.946 14.9767 20.6858 14.9909 20.3063C15.0117 19.7486 15.2977 19.2324 15.781 18.9533C16.2643 18.6742 16.8544 18.6847 17.3479 18.9455C17.6836 19.1229 17.927 19.2215 18.167 19.2531C18.6929 19.3224 19.2248 19.1799 19.6456 18.857C19.9612 18.6148 20.1942 18.2113 20.6601 17.4042C21.1261 16.5972 21.3591 16.1937 21.411 15.7993C21.4802 15.2734 21.3377 14.7415 21.0148 14.3207C20.8674 14.1286 20.6602 13.9671 20.3387 13.7651C19.8662 13.4682 19.5621 12.9623 19.5621 12.4042C19.5621 11.8461 19.8662 11.3404 20.3387 11.0435C20.6603 10.8414 20.8675 10.68 21.0149 10.4878C21.3378 10.067 21.4803 9.53517 21.4111 9.00927C21.3592 8.61485 21.1262 8.21133 20.6602 7.4043C20.1943 6.59727 19.9613 6.19375 19.6457 5.95157C19.2249 5.62866 18.693 5.48615 18.1671 5.55539C17.9271 5.58699 17.6837 5.68566 17.3479 5.8631C16.8545 6.12389 16.2644 6.13432 15.7811 5.85526C15.2977 5.57621 15.0117 5.05996 14.9909 4.50224C14.9767 4.12278 14.9404 3.86263 14.8477 3.63893C14.6448 3.14888 14.2554 2.75953 13.7654 2.55654Z" stroke="black"/>
</svg>
