<svg width="222" height="222" viewBox="0 0 222 222" fill="none" xmlns="http://www.w3.org/2000/svg">
<path d="M18.5 111C18.5 67.395 18.5 45.5926 32.0463 32.0463C45.5926 18.5 67.395 18.5 111 18.5C154.604 18.5 176.408 18.5 189.953 32.0463C203.5 45.5926 203.5 67.395 203.5 111" stroke="white" stroke-width="9"/>
<path d="M18.5 129.5C18.5 103.597 18.5 90.6464 23.541 80.753C27.9751 72.0505 35.0505 64.9751 43.753 60.541C53.6464 55.5 66.5976 55.5 92.5 55.5H129.5C155.403 55.5 168.354 55.5 178.247 60.541C186.95 64.9751 194.025 72.0505 198.459 80.753C203.5 90.6464 203.5 103.597 203.5 129.5C203.5 155.403 203.5 168.354 198.459 178.247C194.025 186.95 186.95 194.025 178.247 198.459C168.354 203.5 155.403 203.5 129.5 203.5H92.5C66.5976 203.5 53.6464 203.5 43.753 198.459C35.0505 194.025 27.9751 186.95 23.541 178.247C18.5 168.354 18.5 155.403 18.5 129.5Z" stroke="white" stroke-width="9"/>
<path d="M87.875 133.2L101.09 148L134.125 111" stroke="white" stroke-width="9" stroke-linecap="round" stroke-linejoin="round"/>
</svg>
