<svg width="24" height="25" viewBox="0 0 24 25" fill="none" xmlns="http://www.w3.org/2000/svg">
<path d="M6 10.4043H10" stroke="black" stroke-linecap="round" stroke-linejoin="round"/>
<path d="M20.8333 11.4043H18.2308C16.4465 11.4043 15 12.7474 15 14.4043C15 16.0612 16.4465 17.4043 18.2308 17.4043H20.8333C20.9167 17.4043 20.9583 17.4043 20.9935 17.4022C21.5328 17.3693 21.9623 16.9705 21.9977 16.4697C22 16.437 22 16.3983 22 16.321V12.4876C22 12.4103 22 12.3716 21.9977 12.3389C21.9623 11.8381 21.5328 11.4393 20.9935 11.4064C20.9583 11.4043 20.9167 11.4043 20.8333 11.4043Z" stroke="black"/>
<path d="M20.965 11.4043C20.8873 9.532 20.6366 8.38405 19.8284 7.57587C18.6569 6.4043 16.7712 6.4043 13 6.4043H10C6.22876 6.4043 4.34315 6.4043 3.17157 7.57587C2 8.74745 2 10.6331 2 14.4043C2 18.1755 2 20.0612 3.17157 21.2327C4.34315 22.4043 6.22876 22.4043 10 22.4043H13C16.7712 22.4043 18.6569 22.4043 19.8284 21.2327C20.6366 20.4246 20.8873 19.2766 20.965 17.4043" stroke="black"/>
<path d="M6 6.4043L9.73549 3.92743C10.7874 3.22992 12.2126 3.22992 13.2645 3.92743L17 6.4043" stroke="black" stroke-linecap="round"/>
<path d="M17.9912 14.4043H18.0002" stroke="black" stroke-linecap="round" stroke-linejoin="round"/>
</svg>
