<svg width="24" height="24" viewBox="0 0 24 24" fill="none" xmlns="http://www.w3.org/2000/svg">
<path fill-rule="evenodd" clip-rule="evenodd" d="M20.4107 9.86037C20.3561 9.85689 20.2966 9.85691 20.235 9.85694H20.2196H17.8017C15.8088 9.85694 14.1035 11.438 14.1035 13.4998C14.1035 15.5616 15.8088 17.1427 17.8017 17.1427H20.2196H20.235C20.2966 17.1427 20.3561 17.1427 20.4107 17.1392C21.2202 17.0877 21.9361 16.4493 21.9963 15.5575C22.0003 15.499 22.0002 15.436 22.0002 15.3776V15.3617V11.6379V11.622C22.0002 11.5636 22.0003 11.5006 21.9963 11.4421C21.9361 10.5504 21.2202 9.91188 20.4107 9.86037ZM17.5874 14.4712C18.1004 14.4712 18.5164 14.0363 18.5164 13.4998C18.5164 12.9633 18.1004 12.5284 17.5874 12.5284C17.0743 12.5284 16.6583 12.9633 16.6583 13.4998C16.6583 14.0363 17.0743 14.4712 17.5874 14.4712Z" fill="#1C274C"/>
<path fill-rule="evenodd" clip-rule="evenodd" d="M20.2341 18.6C20.3778 18.5963 20.4866 18.7304 20.4476 18.8699C20.2541 19.562 19.947 20.1518 19.4542 20.6485C18.7329 21.3755 17.8183 21.6981 16.6882 21.8512C15.5902 22 14.1872 22 12.4158 22H10.3794C8.60803 22 7.20501 22 6.10697 21.8512C4.97692 21.6981 4.06227 21.3755 3.34096 20.6485C2.61964 19.9215 2.29953 18.9997 2.1476 17.8608C1.99997 16.7541 1.99999 15.3401 2 13.5548V13.4452C1.99998 11.6599 1.99997 10.2459 2.1476 9.13924C2.29953 8.00031 2.61964 7.07848 3.34096 6.35149C4.06227 5.62451 4.97692 5.30188 6.10697 5.14876C7.205 4.99997 8.60802 4.99999 10.3794 5H12.4158C14.1872 4.99998 15.5902 4.99997 16.6882 5.14876C17.8183 5.30188 18.7329 5.62451 19.4542 6.35149C19.947 6.84817 20.2541 7.43804 20.4476 8.13012C20.4866 8.26959 20.3778 8.40376 20.2341 8.4L17.8015 8.40001C15.0673 8.40001 12.6575 10.5769 12.6575 13.5C12.6575 16.4231 15.0673 18.6 17.8015 18.6H20.2341ZM5.61446 8.88572C5.21522 8.88572 4.89157 9.21191 4.89157 9.61429C4.89157 10.0167 5.21522 10.3429 5.61446 10.3429H9.46988C9.86912 10.3429 10.1928 10.0167 10.1928 9.61429C10.1928 9.21191 9.86912 8.88572 9.46988 8.88572H5.61446Z" fill="#1C274C"/>
<path d="M7.77686 4.02439L9.73567 2.58126C10.7876 1.80625 12.2128 1.80625 13.2647 2.58126L15.2338 4.03197C14.4105 3.99995 13.4911 3.99998 12.4831 4H10.3125C9.39141 3.99998 8.54428 3.99996 7.77686 4.02439Z" fill="#1C274C"/>
</svg>
